<mxfile host="65bd71144e">
    <diagram id="FjeYL_nXDpYVcdJERDmz" name="Page-1">
        <mxGraphModel dx="575" dy="222" grid="1" gridSize="10" guides="1" tooltips="1" connect="1" arrows="1" fold="1" page="1" pageScale="1" pageWidth="827" pageHeight="1169" math="0" shadow="0">
            <root>
                <mxCell id="0"/>
                <mxCell id="1" parent="0"/>
                <mxCell id="hlPWFPme87H0yH-uSqAs-1" value="" style="ellipse;html=1;shape=startState;fillColor=#000000;" parent="1" vertex="1">
                    <mxGeometry x="210" y="40" width="30" height="30" as="geometry"/>
                </mxCell>
                <mxCell id="hlPWFPme87H0yH-uSqAs-2" value="" style="edgeStyle=orthogonalEdgeStyle;html=1;verticalAlign=bottom;endArrow=open;endSize=8;" parent="1" source="hlPWFPme87H0yH-uSqAs-1" edge="1">
                    <mxGeometry relative="1" as="geometry">
                        <mxPoint x="225" y="130" as="targetPoint"/>
                    </mxGeometry>
                </mxCell>
                <mxCell id="hlPWFPme87H0yH-uSqAs-3" value="&lt;pre style=&quot;font-family: &amp;quot;jetbrains mono&amp;quot;, monospace;&quot;&gt;&lt;span style=&quot;&quot;&gt;Value of a?&lt;/span&gt;&lt;/pre&gt;" style="rounded=1;html=1;arcSize=40;fillColor=none;labelBackgroundColor=#ffffff;" parent="1" vertex="1">
                    <mxGeometry x="165" y="130" width="120" height="40" as="geometry"/>
                </mxCell>
                <mxCell id="hlPWFPme87H0yH-uSqAs-4" value="" style="edgeStyle=orthogonalEdgeStyle;html=1;verticalAlign=bottom;endArrow=open;endSize=8;" parent="1" source="hlPWFPme87H0yH-uSqAs-3" edge="1">
                    <mxGeometry relative="1" as="geometry">
                        <mxPoint x="225" y="230" as="targetPoint"/>
                    </mxGeometry>
                </mxCell>
                <mxCell id="hlPWFPme87H0yH-uSqAs-5" value="" style="rhombus;whiteSpace=wrap;html=1;fillColor=none;" parent="1" vertex="1">
                    <mxGeometry x="180" y="230" width="80" height="40" as="geometry"/>
                </mxCell>
                <mxCell id="hlPWFPme87H0yH-uSqAs-6" value="a&amp;lt;0" style="edgeStyle=orthogonalEdgeStyle;html=1;align=left;verticalAlign=bottom;endArrow=open;endSize=8;strokeColor=#33001A;" parent="1" source="hlPWFPme87H0yH-uSqAs-5" edge="1">
                    <mxGeometry x="-1" relative="1" as="geometry">
                        <mxPoint x="360" y="250" as="targetPoint"/>
                    </mxGeometry>
                </mxCell>
                <mxCell id="hlPWFPme87H0yH-uSqAs-7" value="a&amp;gt;0" style="edgeStyle=orthogonalEdgeStyle;html=1;align=left;verticalAlign=top;endArrow=open;endSize=8;" parent="1" source="hlPWFPme87H0yH-uSqAs-5" edge="1">
                    <mxGeometry x="-1" y="14" relative="1" as="geometry">
                        <mxPoint x="220" y="330" as="targetPoint"/>
                        <mxPoint x="-4" y="-10" as="offset"/>
                    </mxGeometry>
                </mxCell>
                <mxCell id="hlPWFPme87H0yH-uSqAs-21" style="edgeStyle=orthogonalEdgeStyle;rounded=0;orthogonalLoop=1;jettySize=auto;html=1;strokeColor=#000000;fontColor=none;" parent="1" source="hlPWFPme87H0yH-uSqAs-8" target="hlPWFPme87H0yH-uSqAs-20" edge="1">
                    <mxGeometry relative="1" as="geometry">
                        <Array as="points">
                            <mxPoint x="510" y="250"/>
                            <mxPoint x="510" y="770"/>
                            <mxPoint x="220" y="770"/>
                        </Array>
                    </mxGeometry>
                </mxCell>
                <mxCell id="hlPWFPme87H0yH-uSqAs-8" value="&lt;pre style=&quot;color: rgb(169, 183, 198); font-family: &amp;quot;jetbrains mono&amp;quot;, monospace;&quot;&gt;&lt;span style=&quot;color: #6a8759&quot;&gt;Error&lt;/span&gt;&lt;/pre&gt;" style="rounded=1;whiteSpace=wrap;html=1;arcSize=40;fontColor=#000000;fillColor=none;labelBackgroundColor=#ffffff;" parent="1" vertex="1">
                    <mxGeometry x="360" y="230" width="120" height="40" as="geometry"/>
                </mxCell>
                <mxCell id="hlPWFPme87H0yH-uSqAs-13" value="" style="edgeStyle=orthogonalEdgeStyle;rounded=0;orthogonalLoop=1;jettySize=auto;html=1;strokeColor=#000000;fontColor=#000000;" parent="1" source="hlPWFPme87H0yH-uSqAs-9" target="hlPWFPme87H0yH-uSqAs-10" edge="1">
                    <mxGeometry relative="1" as="geometry"/>
                </mxCell>
                <mxCell id="hlPWFPme87H0yH-uSqAs-9" value="&lt;pre style=&quot;color: rgb(169, 183, 198); font-family: &amp;quot;jetbrains mono&amp;quot;, monospace;&quot;&gt;&lt;span style=&quot;color: #6a8759&quot;&gt;x, eps-1, 1e-10&lt;/span&gt;&lt;/pre&gt;" style="rounded=1;whiteSpace=wrap;html=1;arcSize=40;fontColor=#000000;fillColor=none;labelBackgroundColor=#ffffff;" parent="1" vertex="1">
                    <mxGeometry x="160" y="330" width="120" height="40" as="geometry"/>
                </mxCell>
                <mxCell id="hlPWFPme87H0yH-uSqAs-10" value="Condition" style="rhombus;whiteSpace=wrap;html=1;labelBackgroundColor=#ffffff;noLabel=1;fontColor=none;fillColor=none;" parent="1" vertex="1">
                    <mxGeometry x="180" y="400" width="80" height="40" as="geometry"/>
                </mxCell>
                <mxCell id="hlPWFPme87H0yH-uSqAs-11" value="else" style="edgeStyle=orthogonalEdgeStyle;html=1;align=left;verticalAlign=bottom;endArrow=open;endSize=8;fontColor=#000000;" parent="1" source="hlPWFPme87H0yH-uSqAs-10" edge="1">
                    <mxGeometry x="-1" relative="1" as="geometry">
                        <mxPoint x="220" y="490" as="targetPoint"/>
                    </mxGeometry>
                </mxCell>
                <mxCell id="hlPWFPme87H0yH-uSqAs-12" value="|x-xp|&amp;lt;eps" style="edgeStyle=orthogonalEdgeStyle;html=1;align=left;verticalAlign=top;endArrow=open;endSize=8;fontColor=#000000;" parent="1" source="hlPWFPme87H0yH-uSqAs-10" edge="1">
                    <mxGeometry x="-1" relative="1" as="geometry">
                        <mxPoint x="320" y="420" as="targetPoint"/>
                    </mxGeometry>
                </mxCell>
                <mxCell id="hlPWFPme87H0yH-uSqAs-14" value="Print x" style="rounded=1;whiteSpace=wrap;html=1;arcSize=40;fontColor=#000000;labelBackgroundColor=#ffffff;fillColor=none;" parent="1" vertex="1">
                    <mxGeometry x="320" y="400" width="120" height="40" as="geometry"/>
                </mxCell>
                <mxCell id="hlPWFPme87H0yH-uSqAs-15" value="" style="edgeStyle=orthogonalEdgeStyle;html=1;verticalAlign=bottom;endArrow=open;endSize=8;fontColor=none;entryX=1;entryY=0.5;entryDx=0;entryDy=0;" parent="1" source="hlPWFPme87H0yH-uSqAs-14" target="hlPWFPme87H0yH-uSqAs-20" edge="1">
                    <mxGeometry relative="1" as="geometry">
                        <mxPoint x="380" y="500" as="targetPoint"/>
                        <Array as="points">
                            <mxPoint x="380" y="705"/>
                        </Array>
                    </mxGeometry>
                </mxCell>
                <mxCell id="hlPWFPme87H0yH-uSqAs-18" style="edgeStyle=orthogonalEdgeStyle;rounded=0;orthogonalLoop=1;jettySize=auto;html=1;exitX=0.5;exitY=1;exitDx=0;exitDy=0;entryX=0.5;entryY=0;entryDx=0;entryDy=0;strokeColor=#000000;fontColor=none;" parent="1" source="hlPWFPme87H0yH-uSqAs-16" target="hlPWFPme87H0yH-uSqAs-17" edge="1">
                    <mxGeometry relative="1" as="geometry"/>
                </mxCell>
                <mxCell id="hlPWFPme87H0yH-uSqAs-16" value="xp=x" style="rounded=1;whiteSpace=wrap;html=1;arcSize=40;fontColor=#000000;labelBackgroundColor=#ffffff;fillColor=none;" parent="1" vertex="1">
                    <mxGeometry x="160" y="490" width="120" height="40" as="geometry"/>
                </mxCell>
                <mxCell id="hlPWFPme87H0yH-uSqAs-19" style="edgeStyle=orthogonalEdgeStyle;rounded=0;orthogonalLoop=1;jettySize=auto;html=1;entryX=0;entryY=0.5;entryDx=0;entryDy=0;strokeColor=#000000;fontColor=none;" parent="1" source="hlPWFPme87H0yH-uSqAs-17" target="hlPWFPme87H0yH-uSqAs-10" edge="1">
                    <mxGeometry relative="1" as="geometry">
                        <Array as="points">
                            <mxPoint x="140" y="585"/>
                            <mxPoint x="140" y="420"/>
                        </Array>
                    </mxGeometry>
                </mxCell>
                <mxCell id="hlPWFPme87H0yH-uSqAs-17" value="x=(a/x+x)/2" style="rounded=1;whiteSpace=wrap;html=1;arcSize=40;fontColor=#000000;labelBackgroundColor=#ffffff;fillColor=none;" parent="1" vertex="1">
                    <mxGeometry x="160" y="565" width="120" height="40" as="geometry"/>
                </mxCell>
                <mxCell id="hlPWFPme87H0yH-uSqAs-20" value="" style="ellipse;html=1;shape=endState;fillColor=#000000;labelBackgroundColor=#ffffff;fontColor=none;strokeColor=none;" parent="1" vertex="1">
                    <mxGeometry x="205" y="690" width="30" height="30" as="geometry"/>
                </mxCell>
            </root>
        </mxGraphModel>
    </diagram>
</mxfile>